# xmcd
#
# Track frame offsets:
#	150
#	12037
#	23262
#	35686
#	47360
#	58323
#	72548
#	83808
#	96156
#	107455
#	120592
#	132154
#	143679
#	155466
#	167103
#	179788
#	192886
#	203678
#	216224
#	230312
#	241196
#	251108
#	264657
#	275694
#	288042
#	300166
#	311503
#	322652
#
# Disc length: 4465 seconds
#
# Revision: 0
# Processed by: cddbd v1.4PL0 Copyright (c) Steve Scherf et al.
# Submitted via: EasyCDDAExtractor 4.6.9.1
#
DISCID=7b116f1c
DTITLE=Jim Reeves - Welcome To My World - Disc 09
DYEAR=1994
DGENRE=Country
TTITLE0=Have You Ever Been Lonely
TTITLE1=There's Always Me
TTITLE2=All Dressed Up And Lonely
TTITLE3=Welcome To My World
TTITLE4=Be Honest With Me
TTITLE5=I Fall To Pieces
TTITLE6=Just Walking In The Rain
TTITLE7=Blue Skies
TTITLE8=I'm A Fool To Care
TTITLE9=It's No Sin
TTITLE10=Am I That Easy To Forget
TTITLE11=Adios Amigo
TTITLE12=I'll Fly Away
TTITLE13=Where Do I Go From Here
TTITLE14=This World Is Not My Home
TTITLE15=Oh, Gentle Shepherd
TTITLE16=Where We'll Never Grow Old
TTITLE17=I'd Rather Have Jesus
TTITLE18=Have Thine Own Way, Lord
TTITLE19=The Night Watch
TTITLE20=Across The Bridge
TTITLE21=My Cathedral
TTITLE22=Take My Hand Precious Lord
TTITLE23=We Thank Thee
TTITLE24=I Catch Myself Crying
TTITLE25=That's When I See The Blues (In Your Pretty Brown Eyes)
TTITLE26=Where Do I Go To Throw A Picture Away
TTITLE27=A Letter To My Heart
EXTD=
EXTT0=
EXTT1=
EXTT2=
EXTT3=
EXTT4=
EXTT5=
EXTT6=
EXTT7=
EXTT8=
EXTT9=
EXTT10=
EXTT11=
EXTT12=
EXTT13=
EXTT14=
EXTT15=
EXTT16=
EXTT17=
EXTT18=
EXTT19=
EXTT20=
EXTT21=
EXTT22=
EXTT23=
EXTT24=
EXTT25=
EXTT26=
EXTT27=
PLAYORDER=
